<?xml version="1.0" encoding="UTF-8"?>
<svg id="Layer_1" xmlns="http://www.w3.org/2000/svg" version="1.1" viewBox="0 0 388.17 142.43">
  <!-- Generator: Adobe Illustrator 30.3.0, SVG Export Plug-In . SVG Version: 2.1.3 Build 182)  -->
  <defs>
    <style>
      .st0 {
        fill: #3a3b3a;
      }

      .st1 {
        fill: #e96225;
      }
    </style>
  </defs>
  <g>
    <path class="st1" d="M21.24,26.07v37.74h11.8s-1.75,18.07,6.99,18.07h26.23s.52,10.06,30.05-60.86H26.81s-5.12.82-5.57,5.05Z"/>
    <path class="st1" d="M120.5,40.25l-25.5,60.47s-3.06,7.29-8.6,7.29H21.24v8.6s.76,4.81,5.72,4.81h88.16s5.39-.8,5.39-4.59V40.25Z"/>
  </g>
  <g>
    <path class="st0" d="M133.71,70.66v-5.57c0-.86.58-1.44,1.44-1.44h15.18c.86,0,1.44.58,1.44,1.44v5.77c0,2.11,1.15,3.55,2.79,3.55,1.73,0,2.98-1.44,2.98-3.55V23.29c0-.86.58-1.44,1.44-1.44h15.18c.86,0,1.44.58,1.44,1.44v47.37c0,11.53-8.46,19.22-21.04,19.22s-20.85-7.69-20.85-19.22Z"/>
    <path class="st0" d="M180.12,69.32v-27.67c0-12.59,8.36-20.56,21.33-20.56s21.33,7.98,21.33,20.56v27.67c0,12.59-8.46,20.56-21.33,20.56s-21.33-7.97-21.33-20.56ZM204.72,70.09v-29.21c0-2.59-1.15-4.32-3.27-4.32s-3.27,1.73-3.27,4.32v29.21c0,2.59,1.15,4.32,3.27,4.32s3.27-1.73,3.27-4.32Z"/>
    <path class="st0" d="M256.89,21.85h14.99c.87,0,1.44.58,1.44,1.44v64.38c0,.87-.58,1.44-1.44,1.44h-17.1c-.87,0-1.35-.48-1.54-1.25l-7.3-29.11c-.1-.38-.67-.38-.67.1l.19,28.83c0,.87-.58,1.44-1.44,1.44h-14.99c-.86,0-1.44-.58-1.44-1.44V23.29c0-.86.58-1.44,1.44-1.44h16.91c.86,0,1.35.48,1.54,1.25l7.4,29.21c.1.48.67.48.67,0l-.1-29.02c0-.86.58-1.44,1.44-1.44Z"/>
    <path class="st0" d="M316.08,37.32h-18.35c-.29,0-.58.19-.58.58v9.22c0,.38.19.58.58.58h9.51c.87,0,1.44.58,1.44,1.44v12.59c0,.86-.58,1.44-1.44,1.44h-9.51c-.38,0-.58.19-.58.58v9.32c0,.38.19.58.58.58h18.35c.87,0,1.44.58,1.44,1.44v12.59c0,.87-.58,1.44-1.44,1.44h-35.55c-.87,0-1.44-.58-1.44-1.44V23.29c0-.86.58-1.44,1.44-1.44h35.55c.87,0,1.44.58,1.44,1.44v12.59c0,.87-.58,1.44-1.44,1.44Z"/>
    <path class="st0" d="M320.02,71.82v-2.98c0-.87.58-1.44,1.44-1.44h14.99c.87,0,1.44.58,1.44,1.44v2.11c0,2.11,1.15,3.46,2.69,3.46s2.69-1.25,2.69-3.07c0-2.31-1.73-3.84-7.97-8.26-6.82-4.8-15.66-11.05-15.66-22.87s8.17-19.12,20.47-19.12,20.56,7.69,20.56,19.12v2.11c0,.86-.58,1.44-1.44,1.44h-14.89c-.87,0-1.44-.58-1.44-1.44v-2.5c0-1.92-1.15-3.27-2.79-3.27s-2.69,1.44-2.69,3.56c0,2.59,1.54,4.32,7.69,8.84,10.09,7.4,15.95,11.91,15.95,21.81,0,11.82-8.36,19.12-20.56,19.12s-20.47-7.49-20.47-18.06Z"/>
  </g>
  <g>
    <path class="st1" d="M153.84,104.58h-7.08c-.06,0-.12.05-.12.1v6.36c0,.05.06.1.12.1h4.49c.18,0,.31.1.31.26v1.1c0,.15-.12.26-.31.26h-4.49c-.06,0-.12.05-.12.1v6.39c0,.05.06.1.12.1h7.08c.18,0,.31.1.31.26v1.08c0,.15-.12.26-.31.26h-9.07c-.18,0-.31-.1-.31-.26v-17.44c0-.15.12-.26.31-.26h9.07c.18,0,.31.1.31.26v1.08c0,.15-.12.26-.31.26Z"/>
    <path class="st1" d="M159.8,120.64l4.27-8.59c.03-.05.03-.1,0-.15l-4.27-8.59c-.03-.05-.03-.08-.03-.1,0-.13.12-.21.27-.21h1.62c.15,0,.27.05.34.21l3.18,6.82c.03.1.15.1.18,0l3.18-6.82c.06-.15.18-.21.34-.21h1.62c.21,0,.34.13.24.31l-4.31,8.62c-.03.05-.03.1,0,.15l4.31,8.57c.03.05.03.08.03.1,0,.13-.12.21-.27.21h-1.62c-.15,0-.27-.05-.34-.21l-3.18-6.8c-.03-.1-.15-.1-.18,0l-3.18,6.8c-.06.15-.18.21-.34.21h-1.62c-.21,0-.34-.13-.24-.31Z"/>
    <path class="st1" d="M176.5,116.71v-9.52c0-2.69,2.08-4.41,5.19-4.41s5.22,1.72,5.22,4.41v.44c0,.15-.12.26-.31.26l-1.59.08c-.18,0-.31-.1-.31-.26v-.64c0-1.62-1.19-2.69-3.02-2.69s-3.02,1.08-3.02,2.69v9.8c0,1.59,1.22,2.69,3.02,2.69s3.02-1.1,3.02-2.69v-.64c0-.15.12-.26.31-.26l1.59.08c.18,0,.31.1.31.26v.41c0,2.69-2.08,4.44-5.22,4.44s-5.19-1.74-5.19-4.44Z"/>
    <path class="st1" d="M202,120.71l-.76-3.18c0-.05-.09-.1-.15-.1h-5.53c-.06,0-.15.05-.15.1l-.76,3.18c-.03.15-.15.23-.34.23h-1.56c-.21,0-.31-.13-.27-.28l4.58-17.44c.03-.15.15-.23.34-.23h1.83c.18,0,.31.08.34.23l4.64,17.44v.05c0,.13-.09.23-.27.23h-1.59c-.18,0-.31-.08-.34-.23ZM195.89,115.94h4.82c.06,0,.09-.05.09-.1l-2.44-10.08c-.03-.1-.09-.1-.12,0l-2.44,10.08c0,.05.03.1.09.1Z"/>
    <path class="st1" d="M217.75,102.99h1.65c.21,0,.31.1.27.28l-4.43,17.44c-.03.15-.15.23-.34.23h-1.74c-.18,0-.31-.08-.34-.23l-4.43-17.44v-.05c0-.15.09-.23.27-.23h1.71c.18,0,.31.08.34.23l3.3,14.52c.03.08.09.08.12,0l3.27-14.52c.03-.15.15-.23.34-.23Z"/>
    <path class="st1" d="M233.45,120.71l-.76-3.18c0-.05-.09-.1-.15-.1h-5.53c-.06,0-.15.05-.15.1l-.76,3.18c-.03.15-.15.23-.34.23h-1.56c-.21,0-.31-.13-.27-.28l4.58-17.44c.03-.15.15-.23.34-.23h1.83c.18,0,.31.08.34.23l4.64,17.44v.05c0,.13-.09.23-.27.23h-1.59c-.18,0-.31-.08-.34-.23ZM227.34,115.94h4.82c.06,0,.09-.05.09-.1l-2.44-10.08c-.03-.1-.09-.1-.12,0l-2.44,10.08c0,.05.03.1.09.1Z"/>
    <path class="st1" d="M250.03,103.24v1.08c0,.15-.12.26-.31.26h-4.06c-.06,0-.12.05-.12.1v16c0,.15-.12.26-.31.26h-1.56c-.18,0-.31-.1-.31-.26v-16c0-.05-.06-.1-.12-.1h-3.79c-.18,0-.31-.1-.31-.26v-1.08c0-.15.12-.26.31-.26h10.26c.18,0,.31.1.31.26Z"/>
    <path class="st1" d="M256.53,120.69v-17.44c0-.15.12-.26.31-.26h1.56c.18,0,.31.1.31.26v17.44c0,.15-.12.26-.31.26h-1.56c-.18,0-.31-.1-.31-.26Z"/>
    <path class="st1" d="M275.47,102.99h1.53c.18,0,.3.1.3.26v17.44c0,.15-.12.26-.3.26h-1.8c-.15,0-.27-.05-.34-.21l-5.95-13.26c-.03-.1-.15-.08-.15.03l.03,13.18c0,.15-.12.26-.3.26h-1.56c-.18,0-.31-.1-.31-.26v-17.44c0-.15.12-.26.31-.26h1.77c.15,0,.28.05.34.21l5.98,13.29c.03.1.15.08.15-.03v-13.21c0-.15.12-.26.3-.26Z"/>
    <path class="st1" d="M284.78,116.86v-9.8c0-2.59,2.08-4.28,5.16-4.28s5.22,1.69,5.22,4.31v1.1c0,.15-.12.26-.3.26h-1.56c-.18,0-.31-.1-.31-.26v-1.15c0-1.59-1.22-2.67-3.05-2.67s-2.99,1.08-2.99,2.67v9.85c0,1.59,1.19,2.67,2.99,2.67s3.05-1.08,3.05-2.67v-3.28c0-.05-.06-.1-.12-.1h-2.63c-.18,0-.3-.1-.3-.26v-1.08c0-.15.12-.26.3-.26h4.61c.18,0,.3.1.3.26v4.69c0,2.59-2.11,4.28-5.22,4.28s-5.16-1.69-5.16-4.28Z"/>
    <path class="st1" d="M312.69,116.71v-9.52c0-2.69,2.08-4.41,5.19-4.41s5.22,1.72,5.22,4.41v.44c0,.15-.12.26-.31.26l-1.59.08c-.18,0-.31-.1-.31-.26v-.64c0-1.62-1.19-2.69-3.02-2.69s-3.02,1.08-3.02,2.69v9.8c0,1.59,1.22,2.69,3.02,2.69s3.02-1.1,3.02-2.69v-.64c0-.15.12-.26.31-.26l1.59.08c.18,0,.31.1.31.26v.41c0,2.69-2.08,4.44-5.22,4.44s-5.19-1.74-5.19-4.44Z"/>
    <path class="st1" d="M329.73,116.66v-9.39c0-2.69,2.14-4.49,5.25-4.49s5.31,1.8,5.31,4.49v9.39c0,2.69-2.17,4.49-5.31,4.49s-5.25-1.79-5.25-4.49ZM338.12,116.76v-9.57c0-1.67-1.28-2.82-3.14-2.82s-3.08,1.15-3.08,2.82v9.57c0,1.64,1.25,2.8,3.08,2.8s3.14-1.15,3.14-2.8Z"/>
    <path class="st1" d="M347.22,119.46c0-.85.7-1.44,1.71-1.44s1.71.59,1.71,1.44-.73,1.44-1.71,1.44-1.71-.62-1.71-1.44Z"/>
  </g>
</svg>